<svg width="110" height="110" viewBox="0 0 110 110" fill="none" xmlns="http://www.w3.org/2000/svg">
<circle cx="55" cy="55" r="54.5" stroke="#0066FF"/>
<g clip-path="url(#clip0_34_313)">
<path fill-rule="evenodd" clip-rule="evenodd" d="M73.9443 51.3987V57.1774L68.9346 60.0682L66.0452 65.0736H65.3107L65.3121 65.0793V86.6418C65.3121 86.6476 65.3092 86.6519 65.3092 86.6577C65.315 87.0228 65.1813 87.3908 64.9024 87.6697C64.6236 87.9485 64.2555 88.0822 63.889 88.0765C63.8847 88.0765 63.8804 88.0793 63.8746 88.0793C63.4146 88.0793 63.0222 87.8493 62.7605 87.5115L55.2496 80.0006L47.7387 87.5115C47.477 87.8493 47.0861 88.0793 46.6246 88.0793C46.6189 88.0793 46.6145 88.0765 46.6102 88.0765C46.2437 88.0822 45.8757 87.9485 45.5968 87.6697C45.3194 87.3908 45.1842 87.0228 45.19 86.6577C45.19 86.6519 45.1871 86.6476 45.1871 86.6418V65.0793L45.1886 65.0736H44.4597L41.5675 60.0682L36.5592 57.1774V51.3987L33.6684 46.3933L36.5592 41.3865V35.6034L41.5675 32.7097L44.4597 27.7087H50.2457L55.2482 24.8164L60.2564 27.7087H66.0424L68.9317 32.7097L73.9414 35.6034V41.385L76.8308 46.3933L73.9443 51.3987ZM48.0621 65.0793V83.2192L54.0852 77.196C54.1312 77.1285 54.1614 77.0508 54.2218 76.989C54.505 76.7073 54.8787 76.5765 55.2496 76.5851C55.6205 76.5765 55.9942 76.7073 56.2774 76.989C56.3378 77.0508 56.3666 77.1285 56.414 77.196L62.4371 83.2192V65.0793L62.4385 65.0736H60.2579L55.2496 67.9673L50.2471 65.0736H48.0607L48.0621 65.0793ZM71.0621 42.1541V37.2623L66.8244 34.8142L64.3821 30.5837H59.4859L55.2525 28.1385L51.0219 30.5837H46.1258L43.6806 34.8128L39.4414 37.2608V42.1541L36.9962 46.3933L39.4414 50.6296V55.5171L43.6806 57.9637L46.1258 62.1972H51.0205L55.2511 64.6423L59.4845 62.1972H64.3792L66.8215 57.9637L71.0607 55.5171V50.631L73.5044 46.3933L71.0621 42.1541Z" fill="#0066FF"/>
<g clip-path="url(#clip1_34_313)">
<path d="M54.5441 31.1208C54.0439 31.2819 53.3571 31.8923 53.1197 32.3926C52.9925 32.6639 52.9162 33.0709 52.8569 33.7746C52.7042 35.6485 52.187 36.9542 51.1865 37.9971C50.6609 38.5397 50.3302 38.7856 49.5671 39.2011L48.9397 39.5402L48.3885 39.252L47.8459 38.9637H46.1332C44.4968 38.9637 44.4035 38.9722 43.9711 39.1756C43.4793 39.4046 43.1062 39.7607 42.8264 40.2779L42.6399 40.617V54.6919L42.8264 55.0395C43.0638 55.4889 43.4539 55.8789 43.9032 56.1163C44.2254 56.2859 44.3865 56.3028 45.9466 56.3283C47.0743 56.3452 47.7526 56.3283 47.9731 56.2605C48.4479 56.1163 48.8973 55.7941 49.194 55.3787L49.4569 55.0141L51.5596 55.4974C54.8663 56.2605 55.019 56.2774 58.9701 56.3198C61.3611 56.3452 62.5651 56.3283 62.8873 56.2689C64.2609 55.9807 65.2783 54.6325 65.2275 53.1742C65.2105 52.623 65.2105 52.5976 65.5497 52.25C65.999 51.7752 66.1516 51.5208 66.3891 50.8001C66.6604 50.02 66.7282 49.3587 66.5925 48.8076C66.4908 48.3752 66.4993 48.3582 66.7028 48.1378C67.025 47.7986 67.4235 46.8829 67.5252 46.247C67.61 45.6789 67.5422 45.0345 67.3472 44.5512C67.2708 44.3562 67.2878 44.2714 67.4659 44.0001C67.7541 43.5338 67.8644 43.1692 67.9237 42.4824C68.0424 41.041 67.22 39.8285 65.8295 39.3791C65.2529 39.2011 63.9641 39.1078 60.5471 38.9976C58.9616 38.9467 58.9447 38.9467 59.004 38.7602C59.0294 38.6669 59.0803 37.9547 59.1057 37.1831C59.1397 36.1148 59.1142 35.64 59.021 35.1906C58.4359 32.4774 56.3162 30.5527 54.5441 31.1208ZM55.9177 32.8505C56.6384 33.3337 57.2404 34.3512 57.4863 35.5043C57.7407 36.6659 57.5541 38.4634 57.02 39.9896L56.8589 40.4644L60.5217 40.5238C62.5312 40.5492 64.422 40.617 64.7272 40.6679C65.4818 40.7866 65.9566 41.0155 66.1686 41.3547C66.406 41.7447 66.406 42.7113 66.1686 43.0929C65.8803 43.5677 65.592 43.6609 64.193 43.7118C63.2095 43.7457 62.9212 43.7796 62.8619 43.8814C62.7432 44.0679 62.7601 44.1866 62.9127 44.3392C63.0145 44.4495 63.2519 44.4749 64.0743 44.4749C65.2614 44.4749 65.5751 44.5851 65.8464 45.0769C66.1432 45.6111 65.9566 46.6285 65.4564 47.1712C65.0918 47.5866 64.8459 47.646 63.4978 47.6799C62.8025 47.6969 62.1751 47.7562 62.1242 47.7986C61.9716 47.9173 61.9885 48.1632 62.1496 48.3243C62.2514 48.4345 62.4888 48.4599 63.3367 48.4599C64.8035 48.4599 65.0664 48.6126 65.0664 49.4604C65.0664 49.9607 64.795 50.7916 64.5322 51.0714C64.1591 51.4869 63.7606 51.5971 62.6245 51.5971C62.0479 51.5971 61.5053 51.6395 61.412 51.6819C61.3102 51.7412 61.2509 51.86 61.2509 52.0295C61.2509 52.3687 61.4798 52.445 62.4718 52.445C63.1925 52.445 63.2688 52.4619 63.4469 52.6485C63.7521 52.9707 63.7606 53.4201 63.4808 53.9712C63.0569 54.8021 63.1756 54.7767 59.3432 54.7682C56.3671 54.7682 55.9177 54.7512 54.8494 54.5817C53.3062 54.3358 49.5501 53.454 49.2618 53.259C49.1347 53.1826 48.999 53.0131 48.9481 52.8944C48.8973 52.7587 48.8803 50.5712 48.8888 47.0609C48.9142 40.5577 48.7955 41.2699 49.9402 40.7442C52.6195 39.5063 54.0609 37.3527 54.4085 34.0714C54.5018 33.1811 54.5526 32.9946 54.7222 32.8165C55.002 32.5198 55.4344 32.5283 55.9177 32.8505ZM47.6848 40.617C47.8204 40.6849 47.9731 40.8205 48.0239 40.9053C48.1426 41.1343 48.1426 54.1747 48.0239 54.4036C47.8374 54.7512 47.5152 54.8191 46.1247 54.8191C44.7002 54.8191 44.4883 54.7682 44.2678 54.3951C44.1406 54.1747 44.1237 53.5727 44.1237 47.6629C44.1237 43.0165 44.1491 41.1173 44.217 40.9647C44.395 40.5746 44.7257 40.4899 46.1416 40.4899C47.1337 40.4899 47.4983 40.5238 47.6848 40.617Z" fill="#0066FF"/>
<path d="M45.7855 51.6819C45.1072 51.8939 44.785 52.6654 45.1072 53.3438C45.616 54.4036 47.2863 54.0136 47.2863 52.835C47.2863 52.038 46.5317 51.4615 45.7855 51.6819ZM46.4808 52.7248C46.5147 53.0131 46.3706 53.2081 46.1247 53.2081C45.8873 53.2081 45.7347 53.0555 45.7347 52.8265C45.7347 52.5722 45.9042 52.4365 46.201 52.462C46.413 52.4789 46.4638 52.5298 46.4808 52.7248Z" fill="#0066FF"/>
</g>
</g>
<defs>
<clipPath id="clip0_34_313">
<rect width="69" height="69" fill="white" transform="translate(20 25)"/>
</clipPath>
<clipPath id="clip1_34_313">
<rect width="25.4364" height="25.4364" fill="white" transform="translate(42.5127 30.9937)"/>
</clipPath>
</defs>
</svg>
