<svg width="150" height="150" viewBox="0 0 150 150" fill="none" xmlns="http://www.w3.org/2000/svg">
<circle cx="75" cy="75" r="74.5" stroke="#0066FF"/>
<path fill-rule="evenodd" clip-rule="evenodd" d="M106.846 83.2562H79.1539V81.4215H106.846V83.2562Z" fill="#0066FF"/>
<path fill-rule="evenodd" clip-rule="evenodd" d="M37 48.3967H65.9231V50.2314H38.8462V100.686H111.154V50.2314H108.385V48.3967H113V102.521H37V48.3967Z" fill="#0066FF"/>
<path fill-rule="evenodd" clip-rule="evenodd" d="M111.769 93.0413H37.3077V91.2066H111.769V93.0413Z" fill="#0066FF"/>
<path fill-rule="evenodd" clip-rule="evenodd" d="M68.3846 38H105.923V63.686H82.7819L75.4011 70.3444V63.686H68.3846V38ZM70.2308 39.8347V61.8512H77.2472V66.201L82.0689 61.8512H104.077V39.8347H70.2308Z" fill="#0066FF"/>
<path fill-rule="evenodd" clip-rule="evenodd" d="M77 53.595C78.1895 53.595 79.1538 52.6367 79.1538 51.4545C79.1538 50.2724 78.1895 49.314 77 49.314C75.8105 49.314 74.8462 50.2724 74.8462 51.4545C74.8462 52.6367 75.8105 53.595 77 53.595ZM77 54.8182C78.8693 54.8182 80.3846 53.3122 80.3846 51.4545C80.3846 49.5969 78.8693 48.0909 77 48.0909C75.1307 48.0909 73.6154 49.5969 73.6154 51.4545C73.6154 53.3122 75.1307 54.8182 77 54.8182Z" fill="#0066FF"/>
<path fill-rule="evenodd" clip-rule="evenodd" d="M87.4615 53.595C88.6511 53.595 89.6154 52.6367 89.6154 51.4545C89.6154 50.2724 88.6511 49.314 87.4615 49.314C86.272 49.314 85.3077 50.2724 85.3077 51.4545C85.3077 52.6367 86.272 53.595 87.4615 53.595ZM87.4615 54.8182C89.3308 54.8182 90.8462 53.3122 90.8462 51.4545C90.8462 49.5969 89.3308 48.0909 87.4615 48.0909C85.5923 48.0909 84.0769 49.5969 84.0769 51.4545C84.0769 53.3122 85.5923 54.8182 87.4615 54.8182Z" fill="#0066FF"/>
<path fill-rule="evenodd" clip-rule="evenodd" d="M97.9231 53.595C99.1126 53.595 100.077 52.6367 100.077 51.4545C100.077 50.2724 99.1126 49.314 97.9231 49.314C96.7336 49.314 95.7692 50.2724 95.7692 51.4545C95.7692 52.6367 96.7336 53.595 97.9231 53.595ZM97.9231 54.8182C99.7924 54.8182 101.308 53.3122 101.308 51.4545C101.308 49.5969 99.7924 48.0909 97.9231 48.0909C96.0538 48.0909 94.5385 49.5969 94.5385 51.4545C94.5385 53.3122 96.0538 54.8182 97.9231 54.8182Z" fill="#0066FF"/>
<path fill-rule="evenodd" clip-rule="evenodd" d="M85.9231 75H82.8462V81.7273H85.9231V75ZM81.6154 73.7769V82.9504H87.1539V73.7769H81.6154Z" fill="#0066FF"/>
<path fill-rule="evenodd" clip-rule="evenodd" d="M94.5385 71.3306H91.4615V81.1157H94.5385V71.3306ZM90.2308 70.1074V82.3388H95.7692V70.1074H90.2308Z" fill="#0066FF"/>
<path fill-rule="evenodd" clip-rule="evenodd" d="M103.154 68.2727H100.077V81.1157H103.154V68.2727ZM98.8462 67.0496V82.3388H104.385V67.0496H98.8462Z" fill="#0066FF"/>
<path fill-rule="evenodd" clip-rule="evenodd" d="M40.6923 52.6777H46.2308V54.5124H42.5385V57.876H40.6923V52.6777Z" fill="#0066FF"/>
<path fill-rule="evenodd" clip-rule="evenodd" d="M63.1184 56.6186C62.9333 56.1588 62.4143 55.9279 61.9459 56.0972L61.4574 56.2738C61.0926 56.4056 60.8497 56.7501 60.8497 57.1359V58.0761C60.8497 58.8697 60.505 59.6247 59.9041 60.1473L51.1611 67.75L53.5419 74.375C53.9693 75.5643 53.5274 76.89 52.4701 77.5905L52.4581 77.5985L53.9523 81.1255C54.5187 82.4622 53.9439 84.0063 52.6386 84.6549L52.1446 84.9004C50.7766 85.5801 49.1132 85.0291 48.4293 83.6696L46.7408 80.3136H44.9336C43.7533 80.3136 42.7027 79.5702 42.3167 78.4618L40.5373 73.3533C40.0636 71.9932 40.7243 70.5001 42.0531 69.9278L49.5812 66.6859L58.6884 58.7665C58.8887 58.5923 59.0036 58.3407 59.0036 58.0761V57.1359C59.0036 55.9786 59.7321 54.945 60.8265 54.5495L61.315 54.373C62.7202 53.8652 64.2773 54.5576 64.8326 55.9372L72.076 73.9335C72.6568 75.3765 71.9209 77.0109 70.4512 77.542L69.7353 77.8007C68.9075 78.0998 67.9858 77.9898 67.2529 77.5042L66.1839 76.7959L67.2079 75.2694L68.2769 75.9776C68.5212 76.1395 68.8284 76.1762 69.1044 76.0764L69.8203 75.8177C70.3101 75.6407 70.5555 75.0959 70.3619 74.6149L63.1184 56.6186ZM49.5428 68.702L42.7872 71.6113C42.3442 71.802 42.124 72.2997 42.2819 72.7531L44.0613 77.8616C44.1899 78.2311 44.5401 78.4789 44.9336 78.4789H47.0786L50.8354 76.4685L51.4461 76.064C51.7985 75.8305 51.9458 75.3886 51.8033 74.9921L49.5428 68.702ZM50.8547 78.542L48.5374 79.782L50.0805 82.8491C50.3085 83.3023 50.863 83.486 51.3189 83.2594L51.8129 83.0139C52.2481 82.7977 52.4396 82.283 52.2509 81.8374L50.8547 78.542Z" fill="#0066FF"/>
<path fill-rule="evenodd" clip-rule="evenodd" d="M60.4509 59.3442L68.2554 77.1405H52.6923V75.3057H65.4369L58.7585 60.0772L60.4509 59.3442Z" fill="#0066FF"/>
<path fill-rule="evenodd" clip-rule="evenodd" d="M60.4533 76.5705L54.9149 63.1159L56.6236 62.4213L62.162 75.8758L60.4533 76.5705Z" fill="#0066FF"/>
<path d="M73.3077 101.298H77V109.86H73.3077V101.298Z" fill="#0066FF"/>
<path d="M62.8462 108.942C62.8462 108.267 63.3972 107.719 64.0769 107.719H86.2308C86.9105 107.719 87.4615 108.267 87.4615 108.942V110.777C87.4615 111.452 86.9105 112 86.2308 112H64.0769C63.3972 112 62.8462 111.452 62.8462 110.777V108.942Z" fill="#0066FF"/>
<path fill-rule="evenodd" clip-rule="evenodd" d="M88.3846 92.7355H65C64.6601 92.7355 64.3846 93.0093 64.3846 93.3471V94.5702C64.3846 94.908 64.6601 95.1818 65 95.1818H88.3846C88.7245 95.1818 89 94.908 89 94.5702V93.3471C89 93.0093 88.7245 92.7355 88.3846 92.7355ZM65 91.5124C63.9804 91.5124 63.1538 92.3338 63.1538 93.3471V94.5702C63.1538 95.5835 63.9804 96.405 65 96.405H88.3846C89.4042 96.405 90.2308 95.5835 90.2308 94.5702V93.3471C90.2308 92.3338 89.4042 91.5124 88.3846 91.5124H65Z" fill="#0066FF"/>
<path fill-rule="evenodd" clip-rule="evenodd" d="M106.846 83.2562H79.1539V81.4215H106.846V83.2562Z" stroke="#0066FF"/>
<path fill-rule="evenodd" clip-rule="evenodd" d="M37 48.3967H65.9231V50.2314H38.8462V100.686H111.154V50.2314H108.385V48.3967H113V102.521H37V48.3967Z" stroke="#0066FF"/>
<path fill-rule="evenodd" clip-rule="evenodd" d="M111.769 93.0413H37.3077V91.2066H111.769V93.0413Z" stroke="#0066FF"/>
<path fill-rule="evenodd" clip-rule="evenodd" d="M68.3846 38H105.923V63.686H82.7819L75.4011 70.3444V63.686H68.3846V38ZM70.2308 39.8347V61.8512H77.2472V66.201L82.0689 61.8512H104.077V39.8347H70.2308Z" stroke="#0066FF"/>
<path fill-rule="evenodd" clip-rule="evenodd" d="M77 53.595C78.1895 53.595 79.1538 52.6367 79.1538 51.4545C79.1538 50.2724 78.1895 49.314 77 49.314C75.8105 49.314 74.8462 50.2724 74.8462 51.4545C74.8462 52.6367 75.8105 53.595 77 53.595ZM77 54.8182C78.8693 54.8182 80.3846 53.3122 80.3846 51.4545C80.3846 49.5969 78.8693 48.0909 77 48.0909C75.1307 48.0909 73.6154 49.5969 73.6154 51.4545C73.6154 53.3122 75.1307 54.8182 77 54.8182Z" stroke="#0066FF"/>
<path fill-rule="evenodd" clip-rule="evenodd" d="M87.4615 53.595C88.6511 53.595 89.6154 52.6367 89.6154 51.4545C89.6154 50.2724 88.6511 49.314 87.4615 49.314C86.272 49.314 85.3077 50.2724 85.3077 51.4545C85.3077 52.6367 86.272 53.595 87.4615 53.595ZM87.4615 54.8182C89.3308 54.8182 90.8462 53.3122 90.8462 51.4545C90.8462 49.5969 89.3308 48.0909 87.4615 48.0909C85.5923 48.0909 84.0769 49.5969 84.0769 51.4545C84.0769 53.3122 85.5923 54.8182 87.4615 54.8182Z" stroke="#0066FF"/>
<path fill-rule="evenodd" clip-rule="evenodd" d="M97.9231 53.595C99.1126 53.595 100.077 52.6367 100.077 51.4545C100.077 50.2724 99.1126 49.314 97.9231 49.314C96.7336 49.314 95.7692 50.2724 95.7692 51.4545C95.7692 52.6367 96.7336 53.595 97.9231 53.595ZM97.9231 54.8182C99.7924 54.8182 101.308 53.3122 101.308 51.4545C101.308 49.5969 99.7924 48.0909 97.9231 48.0909C96.0538 48.0909 94.5385 49.5969 94.5385 51.4545C94.5385 53.3122 96.0538 54.8182 97.9231 54.8182Z" stroke="#0066FF"/>
<path fill-rule="evenodd" clip-rule="evenodd" d="M85.9231 75H82.8462V81.7273H85.9231V75ZM81.6154 73.7769V82.9504H87.1539V73.7769H81.6154Z" stroke="#0066FF"/>
<path fill-rule="evenodd" clip-rule="evenodd" d="M94.5385 71.3306H91.4615V81.1157H94.5385V71.3306ZM90.2308 70.1074V82.3388H95.7692V70.1074H90.2308Z" stroke="#0066FF"/>
<path fill-rule="evenodd" clip-rule="evenodd" d="M103.154 68.2727H100.077V81.1157H103.154V68.2727ZM98.8462 67.0496V82.3388H104.385V67.0496H98.8462Z" stroke="#0066FF"/>
<path fill-rule="evenodd" clip-rule="evenodd" d="M40.6923 52.6777H46.2308V54.5124H42.5385V57.876H40.6923V52.6777Z" stroke="#0066FF"/>
<path fill-rule="evenodd" clip-rule="evenodd" d="M63.1184 56.6186C62.9333 56.1588 62.4143 55.9279 61.9459 56.0972L61.4574 56.2738C61.0926 56.4056 60.8497 56.7501 60.8497 57.1359V58.0761C60.8497 58.8697 60.505 59.6247 59.9041 60.1473L51.1611 67.75L53.5419 74.375C53.9693 75.5643 53.5274 76.89 52.4701 77.5905L52.4581 77.5985L53.9523 81.1255C54.5187 82.4622 53.9439 84.0063 52.6386 84.6549L52.1446 84.9004C50.7766 85.5801 49.1132 85.0291 48.4293 83.6696L46.7408 80.3136H44.9336C43.7533 80.3136 42.7027 79.5702 42.3167 78.4618L40.5373 73.3533C40.0636 71.9932 40.7243 70.5001 42.0531 69.9278L49.5812 66.6859L58.6884 58.7665C58.8887 58.5923 59.0036 58.3407 59.0036 58.0761V57.1359C59.0036 55.9786 59.7321 54.945 60.8265 54.5495L61.315 54.373C62.7202 53.8652 64.2773 54.5576 64.8326 55.9372L72.076 73.9335C72.6568 75.3765 71.9209 77.0109 70.4512 77.542L69.7353 77.8007C68.9075 78.0998 67.9858 77.9898 67.2529 77.5042L66.1839 76.7959L67.2079 75.2694L68.2769 75.9776C68.5212 76.1395 68.8284 76.1762 69.1044 76.0764L69.8203 75.8177C70.3101 75.6407 70.5555 75.0959 70.3619 74.6149L63.1184 56.6186ZM49.5428 68.702L42.7872 71.6113C42.3442 71.802 42.124 72.2997 42.2819 72.7531L44.0613 77.8616C44.1899 78.2311 44.5401 78.4789 44.9336 78.4789H47.0786L50.8354 76.4685L51.4461 76.064C51.7985 75.8305 51.9458 75.3886 51.8033 74.9921L49.5428 68.702ZM50.8547 78.542L48.5374 79.782L50.0805 82.8491C50.3085 83.3023 50.863 83.486 51.3189 83.2594L51.8129 83.0139C52.2481 82.7977 52.4396 82.283 52.2509 81.8374L50.8547 78.542Z" stroke="#0066FF"/>
<path fill-rule="evenodd" clip-rule="evenodd" d="M60.4509 59.3442L68.2554 77.1405H52.6923V75.3057H65.4369L58.7585 60.0772L60.4509 59.3442Z" stroke="#0066FF"/>
<path fill-rule="evenodd" clip-rule="evenodd" d="M60.4533 76.5705L54.9149 63.1159L56.6236 62.4213L62.162 75.8758L60.4533 76.5705Z" stroke="#0066FF"/>
<path d="M73.3077 101.298H77V109.86H73.3077V101.298Z" stroke="#0066FF"/>
<path d="M62.8462 108.942C62.8462 108.267 63.3972 107.719 64.0769 107.719H86.2308C86.9105 107.719 87.4615 108.267 87.4615 108.942V110.777C87.4615 111.452 86.9105 112 86.2308 112H64.0769C63.3972 112 62.8462 111.452 62.8462 110.777V108.942Z" stroke="#0066FF"/>
<path fill-rule="evenodd" clip-rule="evenodd" d="M88.3846 92.7355H65C64.6601 92.7355 64.3846 93.0093 64.3846 93.3471V94.5702C64.3846 94.908 64.6601 95.1818 65 95.1818H88.3846C88.7245 95.1818 89 94.908 89 94.5702V93.3471C89 93.0093 88.7245 92.7355 88.3846 92.7355ZM65 91.5124C63.9804 91.5124 63.1538 92.3338 63.1538 93.3471V94.5702C63.1538 95.5835 63.9804 96.405 65 96.405H88.3846C89.4042 96.405 90.2308 95.5835 90.2308 94.5702V93.3471C90.2308 92.3338 89.4042 91.5124 88.3846 91.5124H65Z" stroke="#0066FF"/>
</svg>
