<svg width="110" height="110" viewBox="0 0 110 110" fill="none" xmlns="http://www.w3.org/2000/svg">
<circle cx="55" cy="55" r="54.5" stroke="#0066FF"/>
<path d="M53.6457 37H33.2199C30.3344 37 28 39.3506 28 42.2199V56.0803C28 58.8199 30.1236 61.0895 32.8309 61.3002V65.1098C32.8309 65.5961 33.1227 66.05 33.5766 66.2283C33.7225 66.2932 33.8846 66.3256 34.0467 66.3256C34.3709 66.3256 34.6789 66.1959 34.9059 65.9689L39.5584 61.3164H51.6355V63.0834C51.6355 65.9689 53.9861 68.3195 56.8717 68.3195H70.9752L75.6277 72.9721C75.8547 73.199 76.1789 73.3287 76.4869 73.3287C76.649 73.3287 76.7949 73.2963 76.957 73.2314C77.4109 73.0369 77.7027 72.5992 77.7027 72.1129V68.2871C80.3937 68.0764 82.5336 65.823 82.5336 63.0672V49.2068C82.5336 46.3213 80.183 43.9707 77.2975 43.9707H58.8818V42.2037C58.8818 39.3344 56.5313 37 53.6457 37ZM39.0396 58.8848C38.7154 58.8848 38.4074 59.0145 38.1805 59.2414L35.2463 62.1756V60.1006C35.2463 59.4359 34.6951 58.8848 34.0305 58.8848H33.2199C31.6799 58.8848 30.4316 57.6365 30.4316 56.0965V42.2361C30.4316 40.6961 31.6799 39.4479 33.2199 39.4479H53.6457C55.1857 39.4479 56.434 40.6961 56.434 42.2361V56.0965C56.434 57.6365 55.1857 58.8848 53.6457 58.8848H39.0396ZM77.2812 46.4186C78.8213 46.4186 80.0857 47.6668 80.0857 49.223V63.0834C80.0857 64.6234 78.8375 65.8879 77.2812 65.8879H76.4707C75.8061 65.8879 75.2549 66.4391 75.2549 67.1037V69.1787L72.3207 66.2445C72.0938 66.0176 71.7857 65.8879 71.4615 65.8879H56.8555C55.3154 65.8879 54.051 64.6396 54.051 63.0834V61.3002C56.742 61.0895 58.8656 58.8361 58.8656 56.0965V46.4348H77.2812V46.4186Z" fill="#0066FF"/>
<path d="M42.7146 53.3813C42.3904 53.3813 42.0824 53.511 41.8555 53.738C41.6285 53.9649 41.4988 54.2729 41.4988 54.5972C41.4988 54.9214 41.6285 55.2294 41.8555 55.4563C42.0824 55.6833 42.3904 55.813 42.7146 55.813C43.0389 55.813 43.3469 55.6833 43.5738 55.4563C43.8008 55.2294 43.9305 54.9214 43.9305 54.5972C43.9305 54.2729 43.8008 53.9649 43.5738 53.738C43.3469 53.511 43.0389 53.3813 42.7146 53.3813Z" fill="#0066FF"/>
<path d="M42.6822 41.1909C40.6072 41.1909 38.9051 42.8769 38.9051 44.9681V45.0491C38.9051 45.7138 39.4562 46.2649 40.1209 46.2649C40.7855 46.2649 41.3367 45.7138 41.3367 45.0491V44.9681C41.3367 44.2386 41.9365 43.6226 42.6822 43.6226C43.4279 43.6226 44.0277 44.2224 44.0277 44.9681C44.0277 45.6813 43.7521 46.346 43.2496 46.8485C42.1311 47.9671 41.515 49.4585 41.515 51.0472C41.515 51.7118 42.0662 52.263 42.7309 52.263C43.3955 52.263 43.9467 51.7118 43.9467 51.0472C43.9467 50.1069 44.3033 49.2315 44.968 48.5669C45.9244 47.6104 46.4594 46.3298 46.4594 44.9681C46.4594 42.8769 44.7572 41.1909 42.6822 41.1909Z" fill="#0066FF"/>
</svg>
