<svg width="111" height="110" viewBox="0 0 111 110" fill="none" xmlns="http://www.w3.org/2000/svg">
<circle cx="55.4586" cy="55" r="54.5" stroke="#0066FF"/>
<path d="M55.4281 81L55.1336 80.9528C42.6881 78.0159 34 67.0356 34 54.249V36.3911L34.8669 36.3524C42.0941 36.0294 49.0043 33.6199 54.8499 29.3854L55.3822 29L55.9145 29.3854C61.7619 33.62 68.6715 36.0294 75.8963 36.3525L76.7631 36.3911V54.2496C76.7631 67.0362 68.0744 78.0164 55.6338 80.9523L55.4281 81ZM35.8149 38.1171V54.249C35.8149 66.1336 43.8515 76.3475 55.3811 79.146C66.9118 76.3463 74.9484 66.1331 74.9484 54.249V38.1171C67.9003 37.6452 61.1661 35.2775 55.3822 31.2341C49.5996 35.2768 42.866 37.6452 35.8149 38.1171Z" fill="#0066FF"/>
<path d="M55.4118 74.0643L55.2067 74.0298C46.0987 71.8816 39.7348 63.8402 39.7348 54.4751V41.415L40.3125 41.3889C45.6353 41.15 50.7235 39.3763 55.0265 36.259L55.3816 36.002L55.7367 36.259C60.042 39.3769 65.1296 41.1505 70.45 41.3889L71.0277 41.415V54.475C71.0277 63.8395 64.6638 71.881 55.5521 74.031L55.4118 74.0643ZM40.9447 42.5662V54.4756C40.9447 63.2401 46.8755 70.7709 55.381 72.8283C63.8907 70.7654 69.8179 63.2368 69.8179 54.4756V42.5662C64.616 42.2274 59.6452 40.481 55.3816 37.492C51.121 40.481 46.149 42.2274 40.9447 42.5662Z" fill="#0066FF"/>
<path d="M59.4299 53.257V51.0036C59.4299 48.8167 57.6615 47.0339 55.4905 47.0339H55.2727C53.1015 47.0339 51.3369 48.8167 51.3369 51.0036V53.257H49.8978V63.1659H60.8641C60.8641 63.1659 64.6939 53.8113 60.8641 53.257C60.3098 53.1767 59.4299 53.257 59.4299 53.257ZM52.8578 51.0029C52.8578 49.663 53.9418 48.5723 55.2727 48.5723H55.4905C56.8245 48.5723 57.9042 49.663 57.9042 51.0029V53.2564H52.8578V51.0029Z" fill="#0066FF"/>
</svg>
