<svg width="111" height="110" viewBox="0 0 111 110" fill="none" xmlns="http://www.w3.org/2000/svg">
<circle cx="55.4586" cy="55" r="54.5" stroke="#0066FF"/>
<path d="M55 30C48.4348 30.0035 42.134 32.5866 37.4557 37.1926V30H34.1189V43.3472H47.4661V40.0104H39.3626C41.3852 37.9022 43.813 36.2243 46.5001 35.0775C49.1872 33.9307 52.0784 33.3386 55 33.3368C66.9447 33.3368 76.6632 43.0553 76.6632 55C76.6632 66.9447 66.9447 76.6632 55 76.6632C43.0553 76.6632 33.3368 66.9447 33.3368 55H30C30 59.9445 31.4662 64.778 34.2132 68.8892C36.9603 73.0005 40.8647 76.2048 45.4329 78.097C50.001 79.9892 55.0277 80.4843 59.8772 79.5196C64.7268 78.555 69.1813 76.174 72.6776 72.6776C76.174 69.1813 78.555 64.7268 79.5196 59.8772C80.4843 55.0277 79.9892 50.001 78.097 45.4329C76.2048 40.8647 73.0005 36.9603 68.8892 34.2132C64.778 31.4662 59.9445 30 55 30Z" fill="#0066FF"/>
<path d="M53.3055 40.0054L53.2497 58.3629H66.6527V55.0261H56.5967L56.6423 40.0156L53.3055 40.0054Z" fill="#0066FF"/>
</svg>
