<svg width="425" height="432" viewBox="0 0 425 432" fill="none" xmlns="http://www.w3.org/2000/svg">
<path d="M15.5497 163.938L6.02636 101.386L1.3226 102.102L10.8459 164.654L11.7451 170.56L16.4489 169.844L88.225 158.916L87.3259 153.01L15.5497 163.938Z" fill="#0066FF"/>
<path d="M24.5027 128.619C24.1595 126.366 22.4094 124.742 20.6107 125.015L16.5277 125.637C14.7329 125.91 13.5462 127.981 13.8893 130.235L18.3524 159.55L28.9658 157.934L24.5027 128.619Z" fill="#0066FF"/>
<path d="M32.1684 114.863C30.3736 115.136 29.1838 117.204 29.5276 119.462L35.2395 156.98L45.8498 155.364L40.1378 117.846C39.7941 115.589 38.0477 113.968 36.2489 114.242L32.1684 114.863Z" fill="#0066FF"/>
<path d="M50.3036 120.495C48.508 120.769 47.3173 122.84 47.6604 125.094L52.1236 154.409L62.737 152.793L58.2739 123.478C57.9308 121.224 56.1837 119.6 54.3865 119.874L50.3036 120.495Z" fill="#0066FF"/>
<path d="M68.7737 100.893L64.6909 101.515C62.8952 101.788 61.7062 103.86 62.0493 106.114L69.0107 151.838L79.6256 150.222L72.6642 104.497C72.3211 102.244 70.5709 100.62 68.7737 100.893Z" fill="#0066FF"/>
<path d="M19.4513 119.837L32.6457 101.737L49.4206 115.626C49.7847 115.926 50.1999 116.038 50.5904 115.979C50.9996 115.917 51.3782 115.663 51.6358 115.232L65.7863 91.5603L69.9424 95.4037L70.8449 95.2663L68.9645 82.9153L59.1229 84.4136L59.2953 85.5464L63.0354 89.0096L49.8073 111.138L33.1486 97.3446C32.4489 96.7637 31.5539 96.872 31.0241 97.5961L16.9187 116.953C16.322 117.771 16.4055 119.077 17.1053 119.878C17.807 120.67 18.8562 120.655 19.4513 119.837Z" fill="#0066FF"/>
<path d="M90.7196 250.707L37.5225 271.759C27.7461 275.628 22.9494 286.76 26.8316 296.57L38.5675 326.225C42.4497 336.035 53.565 340.87 63.3414 337.001L116.539 315.949C126.315 312.08 131.112 300.948 127.229 291.138L115.493 261.483C111.611 251.673 100.496 246.838 90.7196 250.707ZM123.289 292.698C126.309 300.329 122.579 308.985 114.974 311.995L61.7766 333.047C54.1714 336.057 45.5281 332.297 42.508 324.666L30.7722 295.011C27.7521 287.379 31.482 278.723 39.0873 275.713L92.2844 254.661C99.8896 251.651 108.533 255.411 111.553 263.042L123.289 292.698ZM70.8435 315.65L93.0987 287.497L57.6039 282.195L70.8435 315.65ZM64.2547 287.484L85.2178 290.616L72.0739 307.242L64.2547 287.484Z" fill="#0066FF"/>
<path fill-rule="evenodd" clip-rule="evenodd" d="M279.76 24.8245C276.455 25.9987 272.896 26.7924 269.163 27.1471C272.975 25.3228 275.9 22.4296 277.278 18.9838C273.709 20.6733 269.765 21.9023 265.551 22.5611C262.194 19.6937 257.394 17.9028 252.082 17.9028C241.897 17.9028 233.634 24.5121 233.634 32.6633C233.634 33.8205 233.792 34.9437 234.109 36.0252C218.772 35.408 205.176 29.5377 196.068 20.5971C194.479 22.7848 193.57 25.3228 193.57 28.0258C193.57 33.1446 196.828 37.6631 201.781 40.3113C198.761 40.2395 195.909 39.568 193.417 38.47V38.6515C193.417 45.8056 199.779 51.7729 208.227 53.1247C206.68 53.4711 205.048 53.6444 203.364 53.6444C202.176 53.6444 201.015 53.5556 199.89 53.3823C202.239 59.2444 209.05 63.5141 217.128 63.6281C210.813 67.5897 202.852 69.9501 194.208 69.9501C192.719 69.9501 191.246 69.8827 189.805 69.7473C197.973 73.9282 207.678 76.3735 218.095 76.3735C252.044 76.3735 270.603 53.8845 270.603 34.3774C270.603 33.7355 270.587 33.0936 270.555 32.4643C274.163 30.3824 277.294 27.7852 279.76 24.8245Z" fill="#0066FF"/>
<path fill-rule="evenodd" clip-rule="evenodd" d="M355.693 208.735C367.938 249.641 421.29 278.296 412.435 320.06C403.862 360.493 356.119 381.946 316.503 393.567C280.917 404.006 243.468 393.085 208.837 379.783C180.193 368.781 159.836 346.19 137.721 324.896C115.321 303.329 92.3484 283.334 79.3238 255.084C62.5115 218.619 42.303 179.368 52.752 140.603C63.9363 99.1105 94.7964 59.3022 135.65 46.1193C175.327 33.3161 214.064 63.8416 254.06 75.6438C287.148 85.4077 328.348 81.7253 349.302 109.165C369.987 136.254 345.916 176.075 355.693 208.735Z" fill="url(#paint0_linear_128_415)"/>
<path d="M257.48 203.747C252.81 197.008 243.529 195.324 236.79 199.994C236.39 200.271 236.116 200.696 236.029 201.175C235.942 201.655 236.549 202.05 236.826 202.45L251.599 223.839C252.066 224.513 252.477 224.912 253.221 224.683C253.397 224.629 253.568 224.547 253.728 224.437C256.992 222.175 259.18 218.777 259.889 214.869C260.597 210.961 259.742 207.011 257.48 203.747Z" fill="#000AFF"/>
<path d="M267.01 240.382L226.526 181.958C225.353 180.265 223.591 179.13 221.564 178.763C219.538 178.395 217.488 178.838 215.796 180.012L213.433 181.649C211.74 182.822 210.605 184.584 210.238 186.611C209.938 188.265 210.187 189.929 210.922 191.407L180.576 233.924C179.987 234.749 180.178 235.896 181.003 236.485C181.829 237.074 182.976 236.882 183.564 236.057L213.089 194.692L250.459 248.623L201.36 261.739C200.374 261.988 199.798 263.007 200.059 263.987C200.321 264.966 201.327 265.548 202.307 265.287L252.793 251.8C254.823 253.88 257.854 254.62 260.581 253.781C261.318 253.554 262.034 253.212 262.701 252.75L265.063 251.113C266.756 249.94 267.891 248.178 268.259 246.151C268.627 244.124 268.183 242.075 267.01 240.382ZM262.972 248.094L260.61 249.731C258.78 250.999 256.257 250.542 254.989 248.712L254.968 248.681L254.965 248.677L215.399 191.577L214.506 190.288C213.237 188.457 213.694 185.936 215.525 184.667L217.888 183.031C218.235 182.789 218.612 182.607 219.004 182.487C219.614 182.299 220.263 182.259 220.909 182.376C221.97 182.569 222.893 183.163 223.508 184.05L263.991 242.474C265.26 244.304 264.803 246.825 262.972 248.094Z" fill="#0066FF"/>
<path d="M180.437 273.69C177.311 274.652 173.786 273.541 171.826 270.713L164.697 260.426C162.276 256.931 163.149 252.117 166.644 249.695L169.828 247.489C170.662 246.913 171.805 247.119 172.383 247.953C172.96 248.786 172.753 249.93 171.919 250.507L168.735 252.713C167.848 253.328 167.254 254.251 167.061 255.313C166.869 256.375 167.101 257.447 167.716 258.334L174.844 268.621C176.113 270.452 178.635 270.908 180.464 269.641L183.648 267.435C184.482 266.858 185.626 267.064 186.203 267.898C186.781 268.732 186.573 269.875 185.74 270.453L182.556 272.659C181.889 273.121 181.174 273.464 180.437 273.69Z" fill="#0066FF"/>
<path d="M227.29 289.812C224.838 290.566 222.036 289.708 220.174 287.443L202.194 265.589C201.49 264.734 201.523 263.459 202.267 262.741C203.011 262.024 204.184 262.134 204.887 262.99L222.867 284.844C223.932 286.138 225.676 286.419 226.919 285.495L235.482 279.152C236.198 278.621 236.635 277.801 236.713 276.84C236.792 275.881 236.498 274.942 235.887 274.199L224.293 260.106C223.589 259.251 223.622 257.976 224.366 257.258C225.11 256.541 226.283 256.651 226.986 257.507L238.58 271.599C239.911 273.217 240.577 275.344 240.406 277.434C240.236 279.524 239.244 281.385 237.686 282.539L229.124 288.882C228.552 289.305 227.933 289.614 227.29 289.812Z" fill="#0066FF"/>
<path d="M202.578 261.363L184.252 234.915C183.079 233.222 181.317 232.087 179.29 231.72C178.058 231.496 176.817 231.572 175.654 231.93C174.904 232.161 174.185 232.509 173.522 232.968L169.058 236.061C165.563 238.483 164.69 243.297 167.112 246.792L185.438 273.24C186.611 274.933 188.373 276.068 190.4 276.435C191.632 276.658 192.872 276.582 194.036 276.224C194.786 275.994 195.505 275.646 196.168 275.186L200.632 272.093C202.325 270.92 203.46 269.158 203.827 267.131C204.195 265.104 203.751 263.056 202.578 261.363ZM200.214 266.476C200.022 267.538 199.428 268.46 198.541 269.075L194.077 272.168C193.728 272.409 193.352 272.594 192.957 272.715C192.343 272.904 191.704 272.94 191.055 272.823C189.994 272.63 189.071 272.036 188.456 271.149L170.13 244.702C168.862 242.871 169.319 240.349 171.15 239.081L175.614 235.988C175.962 235.747 176.338 235.563 176.733 235.441C177.347 235.253 177.987 235.216 178.635 235.334C179.696 235.527 180.619 236.121 181.234 237.008L199.56 263.455C200.175 264.341 200.407 265.414 200.214 266.476Z" fill="#0066FF"/>
<path d="M240.7 169.899C239.904 170.144 239.037 170.13 238.217 169.831L229.777 166.755L186.077 180.197C182.013 181.447 177.69 179.158 176.44 175.094L165.956 141.011C164.706 136.947 166.995 132.624 171.059 131.373L222.957 115.41C227.021 114.159 231.345 116.449 232.595 120.513L243.078 154.596C243.774 156.855 243.406 159.239 242.105 161.161L243.289 165.011C243.728 166.438 243.328 167.964 242.246 168.992C241.796 169.42 241.266 169.725 240.7 169.899Z" fill="#0066FF"/>
<path d="M222.392 136.981L183.65 148.898C182.68 149.196 181.653 148.653 181.355 147.683C181.057 146.714 181.601 145.686 182.57 145.388L221.312 133.471C222.281 133.173 223.309 133.717 223.607 134.686C223.905 135.656 223.361 136.683 222.392 136.981Z" fill="#000AFF"/>
<path d="M208.917 155.616L187.722 162.136C186.753 162.434 185.725 161.89 185.427 160.921C185.129 159.952 185.673 158.924 186.642 158.626L207.838 152.106C208.807 151.808 209.834 152.352 210.132 153.321C210.431 154.291 209.886 155.318 208.917 155.616Z" fill="#000AFF"/>
<path d="M226.464 150.219L219.531 152.352C218.562 152.65 217.534 152.106 217.236 151.137C216.938 150.167 217.482 149.14 218.451 148.842L225.384 146.709C226.353 146.411 227.381 146.955 227.679 147.924C227.977 148.894 227.433 149.921 226.464 150.219Z" fill="#000AFF"/>
<path d="M276.46 218.36C275.894 218.534 275.284 218.579 274.672 218.478C273.198 218.236 272.011 217.199 271.572 215.772L270.386 211.919C268.252 211.055 266.576 209.261 265.892 207.039L255.408 172.956C254.158 168.892 256.447 164.569 260.512 163.319L312.41 147.355C316.474 146.105 320.797 148.394 322.047 152.458L332.531 186.54C333.781 190.604 331.492 194.928 327.428 196.178L283.727 209.621L278.476 216.908C277.966 217.615 277.256 218.115 276.46 218.36Z" fill="#0066FF"/>
<path d="M311.845 168.926L273.103 180.843C272.134 181.142 271.106 180.598 270.808 179.628C270.51 178.659 271.054 177.632 272.023 177.334L310.765 165.417C311.734 165.118 312.762 165.662 313.06 166.632C313.358 167.601 312.814 168.628 311.845 168.926Z" fill="#000AFF"/>
<path d="M298.37 187.561L277.174 194.081C276.205 194.379 275.178 193.835 274.879 192.866C274.581 191.896 275.125 190.869 276.094 190.571L297.291 184.051C298.26 183.753 299.287 184.297 299.585 185.266C299.884 186.236 299.339 187.263 298.37 187.561Z" fill="#000AFF"/>
<path d="M315.917 182.164L308.983 184.297C308.014 184.595 306.987 184.051 306.689 183.082C306.391 182.112 306.935 181.085 307.904 180.787L314.837 178.654C315.806 178.356 316.834 178.9 317.132 179.869C317.43 180.839 316.886 181.866 315.917 182.164Z" fill="#000AFF"/>
<defs>
<linearGradient id="paint0_linear_128_415" x1="130.678" y1="167.06" x2="446.513" y2="436.225" gradientUnits="userSpaceOnUse">
<stop offset="0.292829" stop-color="#BAB9EA"/>
<stop offset="1" stop-color="#C4C4C4" stop-opacity="0"/>
</linearGradient>
</defs>
</svg>
