<svg width="55" height="53" viewBox="0 0 55 53" fill="none" xmlns="http://www.w3.org/2000/svg">
<path d="M27.5001 5.40122L51.0644 29.1144C51.9648 30.0202 53.4243 30.0202 54.3247 29.1144C55.2251 28.2086 55.2251 26.7381 54.3247 25.8322L29.3055 0.653056C28.8106 0.155187 28.1485 -0.0430432 27.5001 0.00770505C26.8516 -0.0430432 26.1918 0.155187 25.6947 0.653056L0.675315 25.83C-0.225108 26.7358 -0.225108 28.2063 0.675315 29.1121C1.57574 30.018 3.03518 30.018 3.93793 29.1121L27.5001 5.40122ZM27.5001 33.2495L46.45 52.3206C47.3505 53.2265 48.81 53.2265 49.7126 52.3206C50.6131 51.4148 50.6131 49.9443 49.7126 49.0384L29.3055 28.5014C28.8106 28.0035 28.1485 27.8053 27.5001 27.856C26.8516 27.8053 26.1918 28.0035 25.6947 28.5014L5.28736 49.0384C4.38702 49.9443 4.38702 51.4148 5.28736 52.3206C6.18778 53.2265 7.64731 53.2265 8.54773 52.3206L27.5001 33.2495Z" fill="#000AFF"/>
</svg>
