<svg width="151" height="150" viewBox="0 0 151 150" fill="none" xmlns="http://www.w3.org/2000/svg">
<circle cx="75.5" cy="75" r="74.5" fill="white" stroke="#0066FF"/>
<path d="M77.0655 68.1815L57.2834 91.1608L61.0128 95.203L80.7949 72.2237L77.0655 68.1815Z" fill="#0069FF"/>
<path d="M86.7607 81.9866C89.1861 79.2565 90.5464 75.5577 90.5429 71.7029C90.5393 67.848 89.1722 64.1524 86.7419 61.4279C84.3116 58.7034 81.0168 57.1728 77.5813 57.1724C74.1459 57.1719 70.8508 58.7017 68.4199 61.4257L56.282 75.0453C54.4497 77.1126 52.2701 78.7515 49.8694 79.8673C47.4688 80.983 44.8947 81.5534 42.2963 81.5455H41V87.3637H42.2963C45.576 87.3737 48.8249 86.6538 51.8549 85.2455C54.8849 83.8372 57.6359 81.7685 59.9486 79.1591L72.0863 65.5397C73.545 63.903 75.5233 62.9835 77.5861 62.9835C79.6489 62.9835 81.6273 63.903 83.0859 65.5397C84.5445 67.1764 85.364 69.3962 85.364 71.7109C85.364 74.0255 84.5445 76.2453 83.0859 77.882L72.0335 90.4993C67.9176 95.1757 65.6158 101.488 65.6296 108.06V115H70.8148V108.06C70.8042 103.014 72.5714 98.1681 75.7313 94.5777L86.7607 81.9866Z" fill="#0069FF"/>
<path d="M97.5735 90.4278C94.3539 94.3551 84.2043 105.882 84.102 105.997L84.0858 106.016C83.9063 106.223 83.6922 106.389 83.4557 106.503C83.2192 106.617 82.9649 106.678 82.7074 106.683C82.4498 106.687 82.1941 106.634 81.9547 106.527C81.7154 106.42 81.4971 106.262 81.3124 106.06C81.1277 105.859 80.9801 105.619 80.8781 105.353C80.7762 105.088 80.7218 104.803 80.7181 104.514C80.7144 104.225 80.7614 103.938 80.8566 103.669C80.9517 103.401 81.093 103.156 81.2725 102.948L94.0984 88.1518C96.1432 85.8558 97.7649 83.1303 98.8708 80.1309C99.9768 77.1316 100.545 73.9172 100.544 70.6712C100.543 67.4253 99.972 64.2114 98.8637 61.2131C97.7555 58.2148 96.1318 55.4909 94.0853 53.1967C85.4929 43.5558 71.5124 43.5558 62.9202 53.1967L52.9711 64.7058C47.7717 69.9091 45.9178 69.9091 41 69.9091V75.7273C46.9216 75.7273 50.054 75.4404 56.4953 68.9747L56.5638 68.906L66.6001 57.2966C69.7622 53.7523 74.0495 51.7627 78.519 51.7654C82.9884 51.7682 87.2738 53.763 90.4325 57.3111C93.5911 60.8592 95.3643 65.67 95.3619 70.685C95.3594 75.7001 93.5816 80.5087 90.4195 84.0529L77.5556 98.8922C76.2335 100.416 75.5051 102.467 75.5306 104.594C75.5561 106.72 76.3334 108.748 77.6916 110.232C79.0497 111.715 80.8775 112.533 82.7727 112.504C84.6679 112.475 86.4754 111.603 87.7974 110.079C88.3135 109.493 98.1247 98.35 101.39 94.3664C107.048 87.4629 111 78.0038 111 71.3637H105.815C105.815 76.4998 102.272 84.6957 97.5735 90.4278Z" fill="#0069FF"/>
<path d="M102.107 44.7273C96.4087 38.5455 89.2546 35 82.4815 35V40.8182C87.923 40.8182 93.7628 43.7675 98.5037 48.9091C103.082 53.8755 105.815 60.0944 105.815 65.5455H111C111 58.4445 107.759 50.8564 102.107 44.7273Z" fill="#0069FF"/>
<path d="M54.7659 55.6164C58.3412 50.0816 64.3254 40.8182 77.2963 40.8182V35C61.6798 35 54.451 46.19 50.5675 52.2018C47.9285 56.2869 44.7991 58.2727 41 58.2727V64.0909C46.4244 64.0909 51.1845 61.1605 54.7659 55.6164Z" fill="#0069FF"/>
<path d="M46.1852 91.7273H41V97.5455H46.1852C48.5909 97.5486 50.8974 98.6223 52.5985 100.531C54.2996 102.44 55.2565 105.028 55.2593 107.727V115H60.4444V107.727C60.4402 103.485 58.9365 99.4184 56.2633 96.4189C53.5901 93.4194 49.9657 91.7321 46.1852 91.7273Z" fill="#0069FF"/>
</svg>
